<svg width="15" height="9" viewBox="0 0 15 9" fill="none" xmlns="http://www.w3.org/2000/svg">
<g id="Frame 36">
<path id="Vector" d="M0.704501 0.385462C0.440313 0.473524 0.202544 0.684875 0.0704501 0.949062C0.00880626 1.07529 0 1.13693 0 1.40405C0 1.68585 0.00587084 1.72695 0.0821918 1.87372C0.152642 2.00581 0.792564 2.66041 3.50196 5.37274C6.27299 8.14671 6.86888 8.72793 7.01566 8.80718C7.18297 8.89818 7.20646 8.90405 7.5 8.90405C7.79354 8.90405 7.81703 8.89818 7.98434 8.80718C8.13405 8.72793 8.72407 8.14965 11.5098 5.35806C14.1663 2.69857 14.8708 1.97646 14.9296 1.85904C14.9912 1.73282 15 1.67118 15 1.40405C15 1.12225 14.9912 1.08116 14.9149 0.928514C14.8121 0.72597 14.6419 0.555716 14.4276 0.44417C14.2808 0.370785 14.2368 0.361979 13.9726 0.361979C13.4589 0.361979 13.7524 0.106597 10.4296 3.42656L7.5 6.35024L4.57339 3.42656C1.28278 0.144757 1.54403 0.370785 1.07143 0.356108C0.924657 0.353172 0.774951 0.364914 0.704501 0.385462Z" fill="#F2F2F2" fill-opacity="0.6"/>
</g>
</svg>
