<svg width="16" height="17" viewBox="0 0 16 17" fill="none" xmlns="http://www.w3.org/2000/svg">
<path id="Vector" d="M6.07501 7.80556C5.09602 5.75756 5.65303 3.16381 7.76292 1.75159C9.31017 0.721962 11.3863 0.705083 12.9448 1.72346C15.5836 3.4395 15.8593 7.02349 13.755 9.12775C12.2865 10.5962 10.0979 10.9057 8.32555 10.0561L5.87808 12.5036L7.00336 13.6288C7.62226 14.2477 7.62226 15.2605 7.00336 15.8794C6.38446 16.4983 5.37171 16.4983 4.75281 15.8794L3.62754 14.7541C3.00864 15.373 1.99589 15.373 1.37699 14.7541C0.758089 14.1352 0.758089 13.1225 1.37699 12.5036L6.07501 7.80556ZM11.5045 6.87721C12.1234 6.25831 12.1234 5.24556 11.5045 4.62666C10.8855 4.00776 9.8728 4.00776 9.2539 4.62666C8.635 5.24556 8.635 6.25831 9.2539 6.87721C9.8728 7.49611 10.8855 7.49611 11.5045 6.87721Z" fill="#F2F2F2" fill-opacity="0.6"/>
</svg>
