<svg width="42" height="28" viewBox="0 0 42 28" fill="none" xmlns="http://www.w3.org/2000/svg">
<g id="master_card.e9450084.svg" clip-path="url(#clip0_10_22080)">
<g id="Group">
<path id="Vector" d="M24.7824 16.2974C24.6799 16.0827 24.5774 15.7574 24.4761 15.4347V14.7867C24.4761 14.1387 24.6799 13.4919 24.885 12.8439C25.3976 11.6559 27.3432 11.1171 28.6748 11.8719C28.6748 12.3039 28.5723 12.5199 28.4698 12.9519C27.8546 12.6279 26.9331 12.5199 26.4217 12.8439C25.3964 13.4919 25.09 15.8667 26.5242 16.1907C27.0356 16.2987 27.5482 16.1907 28.0597 15.9747C27.9571 16.4067 27.9571 16.6214 27.7521 17.1614C26.728 17.5934 25.1925 17.1614 24.7824 16.2974ZM40.1445 11.4399C39.7377 13.3299 39.4301 15.2397 39.223 17.1614H37.8914V16.6214C37.2762 17.2694 36.2521 17.3774 35.6382 16.7294C35.3306 16.4054 35.1255 16.0827 35.1255 15.6494C34.9217 14.0307 35.842 12.4119 37.3787 12.4119C37.8914 12.4119 38.0952 12.7359 38.5053 13.0599C38.6078 12.5199 38.7104 11.8719 38.8129 11.3331L40.1445 11.4399ZM36.7648 16.1894C38.1977 16.7294 38.8129 13.4919 37.3787 13.5999C36.4572 13.7079 35.8432 15.7587 36.7648 16.1894ZM4.6076 11.5491C4.6076 11.6571 4.7089 15.2199 4.7089 15.3279C4.81142 15.3279 4.81142 15.3279 4.81142 15.2199C5.32407 14.0319 5.73419 12.8451 6.2456 11.5504C6.85954 11.4411 7.57725 11.5504 8.19119 11.5504C7.78231 13.3851 7.47472 15.3279 7.16713 17.2707H6.04054C6.34813 15.8679 6.55319 14.1411 6.75701 12.6291C6.45066 12.9531 5.32407 16.0839 4.81142 17.2707H3.78737C3.68484 15.6507 3.58354 14.1411 3.48101 12.6291C3.0709 14.1399 2.86584 15.7587 2.66078 17.2707H1.63672C2.04684 15.4359 2.45695 13.4931 2.66201 11.5491C3.27595 11.4411 3.99242 11.5491 4.6076 11.5491ZM17.1014 12.6291H17.8178C17.7153 13.0611 17.7153 13.2771 17.7153 13.7091C17.4077 13.7091 17.1014 13.6011 16.9988 13.8159C16.8963 14.2479 16.6912 15.2199 16.6912 15.5439C16.6912 15.8679 16.5887 16.0839 16.7938 16.2987C16.9056 16.3519 17.028 16.3796 17.152 16.3796C17.276 16.3796 17.3984 16.3519 17.5102 16.2987C17.4077 16.7307 17.4077 16.9467 17.3052 17.3787C16.2811 17.5947 15.3596 17.4867 15.4621 16.2987C15.5647 14.8959 16.1786 12.9531 16.1786 11.6571H17.4077C17.2039 11.9811 17.1014 12.5211 17.1014 12.6291ZM10.752 14.2491C10.957 13.1691 9.21525 13.4931 8.49878 13.7091C8.49878 13.3851 8.60131 13.1691 8.70384 12.8451C9.93172 12.4131 11.9811 12.3051 11.8785 14.0319C11.776 15.0039 11.3659 16.1919 11.4684 17.3787H10.3418C10.3418 17.1627 10.3418 17.0547 10.4444 16.9467C10.2393 16.9467 10.0342 17.2707 9.7279 17.3787C8.90766 17.7027 7.8836 17.3787 7.8836 16.4067V15.9759C7.98613 14.8959 8.80637 14.4639 9.83043 14.4639C9.93172 14.2479 10.6494 14.2479 10.752 14.2479V14.2491ZM9.93172 15.1119C9.31778 15.0039 8.70384 15.5439 8.90766 16.0839C9.11272 16.4067 9.7279 16.4067 10.0342 16.1919C10.3431 15.8679 10.4444 15.5439 10.4444 15.1119H10.2405C10.2405 15.0039 10.0355 15.0039 9.93295 15.1119H9.93172Z" fill="white"/>
<path id="Vector_2" d="M17.6153 14.6787C17.6153 13.0587 19.3558 11.8719 20.79 12.6279C21.5064 12.9519 21.7103 14.1387 21.4039 15.1107H18.7394L18.6368 15.2187C18.7394 15.8667 19.047 16.1907 19.7634 16.1907H20.071C20.4799 16.1907 20.89 16.0827 21.1976 15.8667C21.1976 16.1907 21.0951 16.6214 21.0951 16.9467C19.6621 17.4855 17.6128 17.1614 17.6128 15.4347C17.5103 15.3267 17.6128 15.0027 17.6128 14.6787H17.6153ZM20.3798 14.3547C20.4811 13.1679 18.7406 13.2747 18.8431 14.3547H20.3798ZM12.2887 13.8147C12.3912 12.6279 13.7216 12.4119 15.0545 12.6279H15.3608C15.2583 12.9519 15.2583 13.2759 15.1558 13.5999H13.9279C13.7228 13.5999 13.5178 13.7079 13.5178 13.9227C13.5178 14.4627 14.6444 14.5707 14.9507 15.0027C15.0545 15.2187 15.1558 15.3267 15.1558 15.5427C15.2583 16.7295 14.6444 17.2694 13.5178 17.2694H12.8013C12.4937 17.2694 12.1861 17.2695 11.8798 17.1615C11.8798 17.0535 11.8798 16.4054 11.9823 16.1907C12.4937 16.2974 13.0064 16.4054 13.6203 16.2974C13.8254 16.2974 14.0304 16.0827 14.0304 15.8667C14.0304 15.3267 13.1077 15.3267 12.6988 14.8947C12.5963 14.6787 12.4937 14.5707 12.3912 14.3547L12.2887 13.8147ZM32.0534 17.1615H30.9268V16.7295C30.5179 17.1614 29.5964 17.4855 28.9812 17.1615C28.5723 16.9455 28.3673 16.5135 28.3673 16.0815C28.3673 14.5719 29.8002 14.2467 31.2344 14.3547C31.4394 13.1679 29.8014 13.5999 29.085 13.7079C29.085 13.3839 29.1863 13.0599 29.2888 12.7359C30.5179 12.3039 32.361 12.3039 32.4635 13.7079C32.4635 14.2479 32.2584 14.8947 32.1559 15.4347C32.0534 15.9747 31.9508 16.6215 32.0534 17.1615ZM29.4938 15.9747C29.4938 16.4055 30.0053 16.5147 30.5179 16.4055C30.9268 16.1907 31.1318 15.7587 31.1318 15.2187C30.4154 15.1107 29.3901 15.2187 29.4938 15.9747ZM22.2229 12.6279C22.428 12.6279 23.0419 12.6279 23.3495 12.7359C23.3495 12.9519 23.247 13.1679 23.3495 13.3839C23.5533 13.2759 23.6558 12.9519 23.8609 12.8439C24.066 12.7359 24.3736 12.7359 24.6799 12.7359C24.4761 13.1679 24.3736 13.5999 24.271 14.0307C23.6558 13.9227 23.3495 14.2467 23.1444 14.8947C23.0419 15.2187 22.7343 17.2695 22.7343 17.3775H21.4027C21.8128 15.6507 22.0178 14.1387 22.2229 12.6279ZM34.3066 12.6279C34.3066 12.8439 34.204 13.0599 34.204 13.2759C34.6141 12.9519 34.9205 12.5199 35.637 12.6279C35.5357 13.0599 35.3306 13.4919 35.2293 13.9227C33.6926 13.8147 33.7951 16.7294 33.6926 17.2694H32.4635C32.7711 15.7587 33.0774 14.2467 33.2825 12.6279H34.3066ZM0.51261 13.2759V13.7079C0.51261 13.4919 0.41008 13.2759 0.51261 13.2759ZM9.93296 15.1107C10.0355 15.0027 10.138 15.0027 10.3431 15.1107H9.93296Z" fill="white"/>
<path id="Vector_3" d="M12.5963 27.4165C5.63294 27.4165 0 21.479 0 14.1387C0 6.7996 5.63294 0.75528 12.6988 0.75528C18.1267 0.75528 22.9394 4.42482 24.6812 9.93037L23.7584 10.2544C21.7103 3.77683 15.1571 0.322052 9.01147 2.48082C2.86712 4.64082 -0.410118 11.5479 1.638 18.0255C3.68612 24.5018 10.2406 27.9565 16.3849 25.7978C19.7647 24.6098 22.428 21.911 23.6559 18.3482L24.5774 18.6735C22.6318 23.963 17.9216 27.4165 12.5963 27.4165Z" fill="white"/>
<path id="Vector_4" d="M29.0838 27.6325C23.6559 27.6325 18.8432 24.0698 17.0001 18.7802L17.9216 18.4574C20.1748 24.9338 27.0356 28.2805 33.18 25.9058C39.3243 23.531 42.499 16.2987 40.2459 9.82113C37.9939 3.34481 31.1319 -0.00196099 24.9875 2.37281C21.5052 3.66881 18.8432 6.69036 17.7166 10.4691L16.795 10.1451C17.612 7.47162 19.2169 5.10286 21.4027 3.34481C27.1394 -1.18873 35.128 0.104812 39.4281 6.15159C43.7294 12.1959 42.5003 20.6162 36.766 25.1498C34.6154 26.6605 31.8483 27.5245 29.0838 27.6325Z" fill="white"/>
</g>
</g>
<defs>
<clipPath id="clip0_10_22080">
<rect width="42" height="27" fill="white" transform="translate(0 0.632538)"/>
</clipPath>
</defs>
</svg>
