<svg width="20" height="16" viewBox="0 0 20 16" fill="none" xmlns="http://www.w3.org/2000/svg">
<g id="Frame 33">
<path id="Vector" d="M9.75702 1.06506C5.66611 1.06506 2.17247 3.55306 0.757019 7.06506C2.17247 10.5771 5.66611 13.0651 9.75702 13.0651C13.8479 13.0651 17.3416 10.5771 18.757 7.06506C17.3416 3.55306 13.8479 1.06506 9.75702 1.06506ZM9.75702 11.0651C7.49884 11.0651 5.66611 9.27306 5.66611 7.06506C5.66611 4.85706 7.49884 3.06506 9.75702 3.06506C12.0152 3.06506 13.8479 4.85706 13.8479 7.06506C13.8479 9.27306 12.0152 11.0651 9.75702 11.0651ZM9.75702 4.66506C8.39884 4.66506 7.30247 5.73706 7.30247 7.06506C7.30247 8.39306 8.39884 9.46506 9.75702 9.46506C11.1152 9.46506 12.2116 8.39306 12.2116 7.06506C12.2116 5.73706 11.1152 4.66506 9.75702 4.66506Z" fill="#F2F2F2" fill-opacity="0.6"/>
</g>
</svg>
