<svg width="30" height="31" viewBox="0 0 30 31" fill="none" xmlns="http://www.w3.org/2000/svg">
<g id="18.4a2f9490.svg" clip-path="url(#clip0_10_22087)">
<g id="Group">
<path id="Vector" fill-rule="evenodd" clip-rule="evenodd" d="M30 15.1299C30 23.4139 23.284 30.1299 15 30.1299C6.716 30.1299 0 23.4139 0 15.1299C0 6.84588 6.716 0.129883 15 0.129883C23.284 0.129883 30 6.84588 30 15.1299ZM27.143 15.1299C27.143 21.8369 21.707 27.2729 15 27.2729C8.294 27.2729 2.857 21.8369 2.857 15.1299C2.857 8.42388 8.294 2.98688 15 2.98688C21.707 2.98688 27.143 8.42388 27.143 15.1299Z" fill="white"/>
<path id="Vector_2" d="M10.3429 18.6059H8.72794V13.4719L7.14294 13.9349V12.7129L10.1949 11.6589H10.3429V18.6059ZM17.2279 13.5149C17.2279 13.8519 17.1439 14.1499 16.9749 14.4069C16.8033 14.6698 16.5662 14.8834 16.2869 15.0269C16.6179 15.1899 16.8809 15.4129 17.0749 15.6959C17.2689 15.9759 17.3659 16.3079 17.3659 16.6929C17.3659 17.3129 17.1519 17.8029 16.7219 18.1629C16.2949 18.5219 15.7059 18.7019 14.9539 18.7019C14.1999 18.7019 13.6039 18.5219 13.1679 18.1619C12.7319 17.7999 12.5139 17.3099 12.5139 16.6919C12.5139 16.3209 12.6089 15.9919 12.7999 15.7049C12.9909 15.4189 13.2619 15.1929 13.6119 15.0279C13.3301 14.8846 13.0901 14.6711 12.9149 14.4079C12.7437 14.142 12.6556 13.8311 12.6619 13.5149C12.6619 12.9109 12.8669 12.4329 13.2779 12.0839C13.6889 11.7349 14.2429 11.5589 14.9399 11.5589C15.6439 11.5589 16.2009 11.7339 16.6119 12.0839C17.0219 12.4339 17.2279 12.9109 17.2279 13.5149ZM15.7519 16.5639C15.7519 16.2779 15.6769 16.0579 15.5279 15.9059C15.3809 15.7499 15.1869 15.6719 14.9449 15.6719C14.7029 15.6719 14.5069 15.7499 14.3569 15.9059C14.2069 16.0579 14.1329 16.2779 14.1329 16.5639C14.1329 16.8409 14.2079 17.0599 14.3569 17.2219C14.4341 17.3013 14.5272 17.3637 14.63 17.4049C14.7329 17.446 14.8432 17.4651 14.9539 17.4609C15.1939 17.4609 15.3859 17.3809 15.5319 17.2219C15.6789 17.0629 15.7519 16.8439 15.7519 16.5639ZM14.9399 12.7989C14.7239 12.7989 14.5579 12.8709 14.4429 13.0139C14.3319 13.1539 14.2759 13.3499 14.2759 13.6009C14.2759 13.8489 14.3329 14.0489 14.4479 14.2019C14.5629 14.3549 14.7309 14.4319 14.9539 14.4319C15.1739 14.4319 15.3379 14.3549 15.4459 14.2019C15.5579 14.0489 15.6139 13.8489 15.6139 13.6009C15.6139 13.3529 15.5559 13.1569 15.4419 13.0139C15.3299 12.8709 15.1619 12.7989 14.9399 12.7989ZM21.2279 14.6649H22.8569V16.0439H21.2279V17.9099H19.7239V16.0439H18.0899V14.6639H19.7239V12.8519H21.2279V14.6649Z" fill="white"/>
</g>
</g>
<defs>
<clipPath id="clip0_10_22087">
<rect width="30" height="30" fill="white" transform="translate(0 0.129883)"/>
</clipPath>
</defs>
</svg>
