<svg width="47" height="17" viewBox="0 0 47 17" fill="none" xmlns="http://www.w3.org/2000/svg">
<g id="visa.5de40e38.svg" clip-path="url(#clip0_10_22073)">
<g id="Clip path group">
<mask id="mask0_10_22073" style="mask-type:luminance" maskUnits="userSpaceOnUse" x="0" y="0" width="47" height="16">
<g id="a">
<path id="Vector" d="M0 0.129883H47V15.6314H0V0.129883Z" fill="white"/>
</g>
</mask>
<g mask="url(#mask0_10_22073)">
<g id="Group">
<path id="Vector_2" d="M17.8453 0.403883L11.6912 15.3969H7.67667L4.64908 3.43338C4.46549 2.69638 4.30638 2.42638 3.74678 2.11588C2.83371 1.60938 1.32628 1.13538 0 0.840383L0.0910625 0.403883H6.55356C7.37753 0.403883 8.11778 0.963883 8.3048 1.93288L9.90427 10.6079L13.8567 0.402883L17.8453 0.403883ZM33.5746 10.5019C33.5908 6.54438 28.2166 6.32688 28.2539 4.55888C28.2651 4.02088 28.7679 3.44888 29.8646 3.30288C30.409 3.23038 31.9081 3.17438 33.6099 3.97388L34.2772 0.794383C33.3631 0.455883 32.1877 0.129883 30.7248 0.129883C26.9707 0.129883 24.3289 2.16788 24.3068 5.08588C24.2824 7.24438 26.1917 8.44888 27.6311 9.16588C29.1116 9.90088 29.608 10.3724 29.6027 11.0299C29.5919 12.0354 28.4218 12.4799 27.3285 12.4969C25.4192 12.5269 24.3117 11.9694 23.4285 11.5499L22.7402 14.8349C23.6278 15.2509 25.2654 15.6134 26.9638 15.6314C30.9539 15.6314 33.5639 13.6189 33.5761 10.5019H33.5746ZM43.4887 15.3969H47.001L43.9333 0.404383H40.6922C40.346 0.401369 40.0069 0.504618 39.7188 0.70075C39.4308 0.896881 39.207 1.17685 39.0766 1.50438L33.3764 15.3974H37.3645L38.1557 13.1574H43.0285L43.4887 15.3969ZM39.2509 10.0849L41.2498 4.45488L42.4004 10.0849H39.2509ZM23.2714 0.403883L20.1307 15.3969H16.333L19.4746 0.404383L23.2714 0.403883Z" fill="white"/>
</g>
</g>
</g>
</g>
<defs>
<clipPath id="clip0_10_22073">
<rect width="47" height="16" fill="white" transform="translate(0 0.129883)"/>
</clipPath>
</defs>
</svg>
