<svg width="15" height="17" viewBox="0 0 15 17" fill="none" xmlns="http://www.w3.org/2000/svg">
<path id="Vector" d="M9.35 10.9156C12.675 10.9156 15 8.7921 15 5.73956C15 2.68703 12.675 0.629883 9.35 0.629883H2.96875C2.70988 0.629883 2.5 0.821776 2.5 1.05845V8.43817H0.46875C0.209883 8.43817 0 8.63006 0 8.86674V10.487C0 10.7237 0.209883 10.9156 0.46875 10.9156H2.5V12.0585H0.46875C0.209883 12.0585 0 12.2503 0 12.487V13.9156C0 14.1523 0.209883 14.3442 0.46875 14.3442H2.5V16.2013C2.5 16.438 2.70988 16.6299 2.96875 16.6299H5.25625C5.51512 16.6299 5.725 16.438 5.725 16.2013V14.3442H12.0312C12.2901 14.3442 12.5 14.1523 12.5 13.9156V12.487C12.5 12.2503 12.2901 12.0585 12.0312 12.0585H5.725V10.9156H9.35ZM5.725 3.08517H8.8C10.625 3.08517 11.725 4.12481 11.725 5.73956C11.725 7.37642 10.625 8.43817 8.75 8.43817H5.725V3.08517Z" fill="#F2F2F2" fill-opacity="0.6"/>
</svg>
